<?xml version="1.0" encoding="UTF-8" standalone="no"?> <svg id="Layer_1" data-name="Layer 1" xmlns="http://www.w3.org/2000/svg" viewBox="0 0 128 128"><defs><style>.cls-1{fill:#2d3e50;}</style></defs><title>x</title><path class="cls-1" d="M59.25625,2.65407A14.62972,14.62972,0,1,1,44.62653,17.28379,14.619,14.619,0,0,1,59.25625,2.65407Z"/><path class="cls-1" d="M49.67716,45.027a8.69756,8.69756,0,0,0-7.178,8.56486h0a8.69454,8.69454,0,0,0,8.6967,8.6967h.86206v48.17411H47.40528a7.44163,7.44163,0,0,0-7.44163,7.44163h0a7.44163,7.44163,0,0,0,7.44163,7.44163H80.59472a7.44163,7.44163,0,0,0,7.44163-7.44163h0a7.44163,7.44163,0,0,0-7.44163-7.44163h-4.6019V48.96654a7.50925,7.50925,0,0,0-8.96765-7.3663C59.51679,43.0868,49.97494,44.97466,49.67716,45.027Z"/></svg>