<svg fill="#d89e76" height="100px" width="100px" version="1.1" id="Layer_1" viewBox="0 0 512 512" xml:space="preserve" stroke="#d89e76" stroke-width="5">
<g>
    <path d="M256,0c-23.2,0-42,18.8-42,42v60c0,23.2,18.8,42,42,42s42-18.8,42-42V42C298,18.8,279.2,0,256,0z"/>
    <path d="M256,368c-23.2,0-42,18.8-42,42v60c0,23.2,18.8,42,42,42s42-18.8,42-42v-60C298,386.8,279.2,368,256,368z"/>
    <path d="M470,214H410c-23.2,0-42,18.8-42,42c0,23.2,18.8,42,42,42h60c23.2,0,42-18.8,42-42C512,232.8,493.2,214,470,214z"/>
    <path d="M102,256c0-23.2-18.8-42-42-42H0c-23.2,0-42,18.8-42,42c0,23.2,18.8,42,42,42h60C83.2,298,102,279.2,102,256z"/>
    <path d="M393.6,118.4c-16.4-16.4-43-16.4-59.4,0l-42.4,42.4c-16.4,16.4-16.4,43,0,59.4c16.4,16.4,43,16.4,59.4,0l42.4-42.4C410,161.4,410,134.8,393.6,118.4z"/>
    <path d="M220.2,291.8c-16.4-16.4-43-16.4-59.4,0l-42.4,42.4c-16.4,16.4-16.4,43,0,59.4c16.4,16.4,43,16.4,59.4,0l42.4-42.4C236.6,334.8,236.6,308.2,220.2,291.8z"/>
    <path d="M220.2,160.8c16.4-16.4,16.4-43,0-59.4l-42.4-42.4c-16.4-16.4-43-16.4-59.4,0c-16.4,16.4-16.4,43,0,59.4l42.4,42.4C177.2,177.2,203.8,177.2,220.2,160.8z"/>
    <path d="M393.6,393.6c16.4-16.4,16.4-43,0-59.4l-42.4-42.4c-16.4-16.4-43-16.4-59.4,0c-16.4,16.4-16.4,43,0,59.4l42.4,42.4C350.6,410,377.2,410,393.6,393.6z"/>
</g>
</svg>
