<?xml version="1.0" encoding="UTF-8" standalone="no"?> <svg width="64" height="64" viewBox="0 0 64 64" xmlns="http://www.w3.org/2000/svg">
<path d="M34.2 27.1L39.5 21.8C40.5 20.8 41 19.5 41 18.1C41 16.7 40.5 15.4 39.5 14.4C37.5 12.4 34.2 12.4 32.2 14.4L32 14.7L31.8 14.5C29.8 12.5 26.5 12.5 24.5 14.5C23.5 15.5 23 16.8 23 18.2C23 19.6 23.5 20.9 24.5 21.9L29.8 27.2C30.4 27.8 31.2 28.1 32 28.1C32.8 28.1 33.6 27.7 34.2 27.1Z" fill="#d89e76"/>
<path d="M60.9 35.5L55.9 26.5C55.8 26.3 55.5 26.1 55.3 26L47 23.9V16.6L51.6 18.9C52 19.1 52.6 19 52.9 18.6L57.9 11.6C58.1 11.4 58.1 11.1 58.1 10.8C58.1 10.5 57.9 10.3 57.6 10.1L46.6 4.1C46.5 4.1 46.4 4 46.4 4L38.4 2C38 2 37.7 2 37.4 2.2C34.1 4.4 29.8 4.4 26.5 2.2C26.3 2 26 2 25.8 2L17.8 4C17.7 4 17.6 4.1 17.6 4.1L6.60002 10.1C6.40002 10.2 6.20002 10.4 6.10002 10.7C6.00002 11 6.00002 11.3 6.10002 11.5L10.1 18.5C10.4 18.9 10.9 19.1 11.4 18.9L17 16.5V23.9L8.70002 26C8.40002 26.1 8.20002 26.2 8.10002 26.5L3.10002 35.5C3.00002 35.8 3.00002 36.1 3.10002 36.3C3.20002 36.5 3.40002 36.8 3.70002 36.9L8.00002 38.6V53C8.00002 53.4 8.30002 53.8 8.70002 53.9L31.7 61.9C31.8 61.9 31.9 62 32 62C32.1 62 32.2 62 32.3 61.9L55.3 53.9C55.7 53.8 56 53.4 56 53V38.6L60.4 36.9C60.7 36.8 60.9 36.6 61 36.3C61.1 36 61 35.8 60.9 35.5ZM19 15.2C20.7 12.2 20.8 8.7 19.5 5.6L25.2 4.2C25.7 7.5 28.6 10 32 10C35.4 10 38.3 7.5 38.9 4.3L44.6 5.7C43.2 8.8 43.4 12.3 45.1 15.3V29.5L32.1 34L19.1 29.5V15.2H19ZM24 55.9C24 56.2 23.8 56.5 23.6 56.7C23.4 56.8 23.2 56.9 23 56.9C22.9 56.9 22.8 56.9 22.7 56.8L17.7 55.1C17.3 55 17 54.6 17 54.2V48.7C17 48.4 17.2 48.1 17.4 47.9C17.7 47.7 18 47.7 18.3 47.8L23.3 49.5C23.7 49.6 24 50 24 50.4V55.9V55.9ZM26.5 43.7L5.40002 35.5L9.40002 28.2L30.5 35.5L26.5 43.7ZM33 59C33 59.6 32.6 60 32 60C31.4 60 31 59.6 31 59V38C31 37.4 31.4 37 32 37C32.6 37 33 37.4 33 38V59ZM47 54.1C47 54.5 46.7 54.9 46.3 55L41.3 56.7C41.2 56.7 41.1 56.8 41 56.8C40.8 56.8 40.6 56.7 40.4 56.6C40.1 56.4 40 56.1 40 55.8V50.3C40 49.9 40.3 49.5 40.7 49.4L45.7 47.7C46 47.6 46.3 47.6 46.6 47.8C46.9 48 47 48.3 47 48.6V54.1ZM37.5 43.7L33.4 35.5L54.5 28.2L58.5 35.5L37.5 43.7Z" fill="#d89e76"/>
</svg>
