<?xml version="1.0" encoding="utf-8"?><!-- Uploaded to: SVG Repo, www.svgrepo.com, Generator: SVG Repo Mixer Tools -->
<svg width="100px" height="100px" viewBox="0 0 32 32" id="Lager_84" data-name="Lager 84" xmlns="http://www.w3.org/2000/svg">
  <path id="Path_91" data-name="Path 91" d="M24.336,4.8l2.859,2.859L15.3,20H12V16.7L24.336,4.8M24.362,0a1.991,1.991,0,0,0-1.411.584L8,15v9h9L31.416,9.05a2,2,0,0,0,0-2.822L25.773.585A1.988,1.988,0,0,0,24.362,0Z" fill="#d89e76"/>
  <path id="Path_92" data-name="Path 92" d="M28,27a1,1,0,0,1-1,1H5a1,1,0,0,1-1-1V5A1,1,0,0,1,5,4h5a2,2,0,0,0,2-2h0a2,2,0,0,0-2-2H2A2,2,0,0,0,0,2V30a2,2,0,0,0,2,2H30a2,2,0,0,0,2-2V22a2,2,0,0,0-2-2h0a2,2,0,0,0-2,2Z" fill="#d89e76"/>
</svg>