<?xml version="1.0" encoding="utf-8"?><!-- Uploaded to: SVG Repo, www.svgrepo.com, Generator: SVG Repo Mixer Tools -->
<svg width="100px" height="100px" viewBox="2 2 20 20" xmlns="http://www.w3.org/2000/svg" fill="none"><path fill="#d89e76" fill-rule="evenodd" d="M10.138 1.815A3 3 0 0 1 14 4.688v14.624a3 3 0 0 1-3.862 2.873l-6-1.8A3 3 0 0 1 2 17.512V6.488a3 3 0 0 1 2.138-2.873l6-1.8zM15 4a1 1 0 0 1 1-1h3a3 3 0 0 1 3 3v1a1 1 0 1 1-2 0V6a1 1 0 0 0-1-1h-3a1 1 0 0 1-1-1zm6 12a1 1 0 0 1 1 1v1a3 3 0 0 1-3 3h-3a1 1 0 1 1 0-2h3a1 1 0 0 0 1-1v-1a1 1 0 0 1 1-1zM9 11a1 1 0 1 0 0 2h.001a1 1 0 1 0 0-2H9z" clip-rule="evenodd"/><path stroke="#d89e76" stroke-linecap="round" stroke-linejoin="round" stroke-width="2" d="M16 12h5m0 0-2-2m2 2-2 2"/></svg>