<?xml version="1.0" encoding="utf-8"?>
<svg xmlns="http://www.w3.org/2000/svg" viewBox="0 0 400 300">
<path d="m53 300c-11.5 0-30.1-2.2-42.2-21.7-2.6-4.2-10.8-17.8-10.8-47.6 0-11.7 1.2-35.9 18.7-75.1 8-17.8 15.7-32.5 37.6-69.2 1 2.5 1.3 5.2 0.8 8s-1.4 5.4-2.8 7.8c-11.4 22.8-15.8 28-24.6 47.8-13 29.3-12.6 46.4-12.6 51.9 0 17.4 5 29.8 12.2 38 7.1 8 18.6 14.5 36.2 14.5 16.2 0 32.2-5.9 44.2-12.9s25.1-17.9 33-32.2c1.4-2.9 1.9-5.6 1.5-8-0.4-2.7-1.9-6.2-17.1-10.3-4.4-1.2-8.8-3.2-13-6.1-9.6-7.1-11-18.1-11-24 0-16 10.1-34.5 14.8-42.3 11.8-19.8 24.6-33 27.8-36.2 11.4-10.5 18.1-14.5 20.4-15.9 14.7-9.1 20.4-7.1 22.9-5.7 0.4 2.5 2.1 6.4 7.1 6.4 9.5 0 17.2-7.2 23.2-21.7 0.8-2.4 2-3.5 3.3-3.3 1.9 2.5 4.5 3.8 7.9 3.8 0.7 0 4.4 0.2 7.3-6.5 1.9-4.4 1.9-6.3 3.4-10.3 0.3-1.4 0.9-2.8 1.8-4.5 0.8-1.6 2-2.3 3.3-2.2-0.9 2.4-1.4 5.1-1.8 8-0.3 3-0.7 5.8-1 8.5-2 10.2-5.4 18.1-10.2 23.8s-10.9 8.7-18.4 9c-4.8 6.5-9.4 11.1-14 14s-9.2 4.7-13.8 5.4c-5.1-1.9-9.8-2.8-14-2.8-13.2 0-28.5 12.9-31.3 15.4-4.1 3.6-17.6 16.6-17.6 27.4 0 2.5 0.4 7.8 7.5 12.5 7 4.6 15.6 6.1 17.5 6.4 1.6 0.2 6.6 0.8 9.3 9 1.1 3.2 1.7 6.7 1.7 13.9 0 23.1-10.2 45.1-15.5 55.3-8.9 16.8-22.2 35.6-39.5 50-25.6 21.4-46.1 21.7-52.2 21.7z"/>
<path d="m243.7 218.8c-7.2 22.9-10.7 30-14.9 37.1-13 21.9-28.4 20.8-30.5 20.8-3.1 0-6.7 0.8-16.6 4.2-9.1 3.1-11.5 4.3-17.1 6 0-1.6 0-4.3 8.9-9.9 54.9-35.1 67.1-72.7 71.1-84.1 1.5-3.8 2.8-7.7 5.9-19.1 0.4-2.4 1.8-5.9 2.7-7.8 0.4-1 2.3-4.7 5.5-4.7-1.2 2-1.9 3.7-3.1 8.9-4.7 22.7-8.3 36.8-11.9 48.6z"/>
<path d="m375.8 0c3.2 1.2 6.3 2.5 9.2 4.1 2.9 1.5 5.4 3.3 7.6 5.2 2.2 2 4 4.1 5.4 6.5s2 5 2 7.9-0.7 5.9-2.2 8.9c-1.4 3.1-3.2 6-5.4 8.8-2.1 2.8-4.4 5.4-6.9 7.8s-4.7 4.2-6.8 5.6c-1.2-1.5-2.9-3.3-5.1-5.2-2.2-2-4.7-3.9-7.4-5.7-2.7-1.9-5.6-3.6-8.8-5.1-3.1-1.5-6.2-2.7-9.3-3.6 5.6-7.3 10.4-13.5 14.5-18.7 4.3-5.2 8.6-10.7 13.2-16.5z"/>
<path d="m382.4 118.3c-3.8-6.7-11-14.8-21.9-14.8-5.3 0-12.3 1-16.1 12.2-9.4 26.7-13 32.1-13.5 35.4-1.5 14.8 9.6 19.9 11 20.5s12.6 5.6 23.7-4.5c4.6 1.4 6.7 5.1 7.6 8.4-2.5 3-13.1 15.5-30.8 15.5-7.5 0-19.9-1.4-27-14.9-3.7-6.9-6.1-16.6-6.1-32 0-6.1 0-22.5 3.6-56.5 2.5-23.8 3.9-31.8 6.6-56.7 1.2-8.2 0.5-12.8-2-14-2.4 9-4.7 16.7-6.9 23.1s-4.8 13-7.6 19.8c-0.9 1.7-1.5 3.7-1.9 5.9s-0.8 4.8-1.1 7.6c-5.9 52.3-8.2 69-8.2 98.6 0 28.8 6 41 6.9 43.1 9.4 21.8 26.6 21.7 31.3 21.7 12 0 22.8-6.1 31.9-16.4 11.2-12.7 17.8-29 20.6-37 7.6-21.3 7.4-35 7.4-36.8-0.1-4.3-1-16.6-7.5-28.2z"/>
</svg>
