<?xml version="1.0" encoding="UTF-8" standalone="no"?>
<svg fill="#d89e76" height="100px" width="100px" version="1.1" viewBox="0 0 15.602 15.602">
<g transform="rotate(90,7.801,7.801)">
	<g>
		<path
   d="m 10.155,0 h 2.961 c 0.191,0 0.352,0.161 0.352,0.354 v 14.893 c 0,0.195 -0.16,0.355 -0.352,0.355 H 10.155 C 9.964,15.602 9.8,15.442 9.8,15.247 V 0.354 C 9.8,0.161 9.964,0 10.155,0 Z"/>
		<path
   d="m 2.488,0 h 2.963 c 0.191,0 0.35,0.161 0.35,0.354 v 14.893 c 0,0.195 -0.158,0.355 -0.35,0.355 H 2.488 c -0.196,0 -0.354,-0.161 -0.354,-0.356 V 0.354 C 2.134,0.161 2.292,0 2.488,0 Z"/>
	</g>
</g>
</svg>
