<?xml version="1.0" encoding="UTF-8" standalone="no"?> <svg id="Layer_1" data-name="Layer 1" xmlns="http://www.w3.org/2000/svg" viewBox="0 0 128 128"><path d="M54.22424,84.1345a79.93034,79.93034,0,0,0,9.75452,16.547,80.11705,80.11705,0,0,0,9.78468-16.547C67.27032,83.83522,60.71736,83.83522,54.22424,84.1345Z"/><path d="M31.214,86.40867a40.29838,40.29838,0,0,0,22.65121,15.73914,83.13981,83.13981,0,0,1-9.15639-17.3551C40.19069,85.18175,35.67239,85.72029,31.214,86.40867Z"/><path d="M26.63579,48.7064a39.78148,39.78148,0,0,0,0,29.2342c5.17651-.86769,10.38312-1.55606,15.44-2.0647a58.36749,58.36749,0,0,1,0-25.13478C36.98894,50.2624,31.8123,49.57427,26.63579,48.7064Z"/><path d="M51.232,75.18778q6.3734-.35919,12.74673-.35906c4.2791,0,8.528.1196,12.7769.35906a49.84143,49.84143,0,0,0,0-23.75835,213.654,213.654,0,0,1-25.52363,0A49.84269,49.84269,0,0,0,51.232,75.18778Z"/><path d="M101.35189,77.9406a40.18364,40.18364,0,0,0,0-29.2342c-5.17663.86787-10.38312,1.556-15.44,2.03472a58.37343,58.37343,0,0,1,0,25.13478C90.96877,76.38454,96.17526,77.07291,101.35189,77.9406Z"/><path d="M74.09252,24.49932a81.92266,81.92266,0,0,1,9.18618,17.355c4.51829-.389,9.03659-.95756,13.495-1.61578A40.36606,40.36606,0,0,0,74.09252,24.49932Z"/><path d="M73.76344,42.51243a79.34932,79.34932,0,0,0-9.78468-16.54692,79.16673,79.16673,0,0,0-9.75452,16.54692C60.71736,42.81178,67.27032,42.81178,73.76344,42.51243Z"/><path d="M13.08975,42.2107a3.51727,3.51727,0,0,0,4.07735-.23788c1.16892-.98559,1.68686-2.81907,2.20039-4.197l1.85724-4.988H37.03727l1.85717,4.88169c.68435,1.7952,1.518,4.46337,3.63559,4.96968a3.90555,3.90555,0,0,0,4.77479-3.51059,12.61677,12.61677,0,0,0-1.19394-4.16528L35.94949,9.86493a24.56261,24.56261,0,0,0-2.26588-5.03912c-1.45-2.10995-4.24742-2.19995-6.6383-1.33477-2.87846,1.04158-3.7283,4.53011-4.7328,7.08012-.00679.01729-9.94916,24.60447-9.94916,24.60447C11.40962,37.53924,10.38149,40.58311,13.08975,42.2107ZM29.05143,11.47316l5.86338,15.39825H23.2942Z"/><path d="M112.23907,97.94689a3.02125,3.02125,0,1,0,0-6.0425h-20.182l.34315-3.82087a3.02155,3.02155,0,0,0-6.01893-.53993l-.39167,4.3608h-6.89a3.02125,3.02125,0,1,0,0,6.0425h6.34712L84.493,108.56564a3.01874,3.01874,0,0,0,.66978,2.18184,33.3858,33.3858,0,0,0,4.9226,4.59718,27.70117,27.70117,0,0,1-12.57761,4.14058,3.02141,3.02141,0,0,0,.267,6.03075c.09,0,.18144-.0044.27288-.01182A32.95306,32.95306,0,0,0,95.526,118.94072c4.24479,2.36386,9.73359,5.13522,16.42833,5.76792q.146.01329.28766.01326a3.02134,3.02134,0,0,0,.28181-6.02924c-4.82732-.45641-8.91134-2.50326-12.26745-4.14461a41.01,41.01,0,0,0,8.51314-16.60116Zm-17.29922,13.4436a34.42481,34.42481,0,0,1-4.30845-3.61857l.88277-9.825H102.531A33.01224,33.01224,0,0,1,94.93985,111.39049Z"/><path d="M64,5.34663A57.70263,57.70263,0,0,0,44.60032,8.69294L47.396,15.576A50.52175,50.52175,0,0,1,110.3604,83.43274h1.88489a11.45044,11.45044,0,0,1,5.54882,1.44017,57.48148,57.48148,0,0,0,4.1722-21.56C121.96631,33.09586,95.95881,5.34663,64,5.34663Z"/><path d="M13.44629,63.96606a49.68,49.68,0,0,1,1.48253-12.11422A11.85157,11.85157,0,0,1,7.855,49.52211,57.99058,57.99058,0,0,0,64,121.93231c.78359,0,1.58843-.02118,2.372-.06342a11.3226,11.3226,0,0,1,2.58388-6.07832,10.19268,10.19268,0,0,1,1.84253-1.73669A48.0252,48.0252,0,0,1,64,114.51977,50.60267,50.60267,0,0,1,13.44629,63.96606Z"/></svg>