<?xml version="1.0" encoding="iso-8859-1"?>
<!-- Generator: Adobe Illustrator 22.1.0, SVG Export Plug-In . SVG Version: 6.00 Build 0)  -->
<svg version="1.1" id="Layer_1" xmlns="http://www.w3.org/2000/svg" xmlns:xlink="http://www.w3.org/1999/xlink" x="0px" y="0px"
	 viewBox="0 0 28 29" style="enable-background:new 0 0 28 29;" xml:space="preserve" fill="#d89e76">
<g id="document-paste_1_">
	<polygon style="opacity:0.75;" points="2,25 2,4 5,4 5,2 0,2 0,27 11,27 11,25 	"/>
	<polygon style="opacity:0.75;" points="19,4 19,8 21,8 21,2 16,2 16,4 	"/>
	<polygon points="27,28 13,28 13,10 23,10 23,9 12,9 12,29 28,29 28,14 27,14 	"/>
	<polygon points="24,9 24,12 28,13 	"/>
	<polygon style="opacity:0.75;" points="15,5 15,2 13,2 13,0 8,0 8,2 6,2 6,5 	"/>
</g>
</svg>
