<?xml version="1.0" encoding="UTF-8" standalone="no"?> <svg xmlns="http://www.w3.org/2000/svg" width="42.34" height="45.35" viewBox="0 0 42.34 45.35">
  <defs>
    <style>
      .a {
        fill: #d3d4ed;
      }
    </style>
  </defs>
  <title>34 Update, reset_4</title>
  <g>
    <path class="a" d="M40.17,24.18h-4a2,2,0,0,0-2,2v4a1,1,0,0,1-1,1h-21V27a2,2,0,0,0-3.41-1.41L.59,33.76a2,2,0,0,0,0,2.83l8.17,8.17a2,2,0,0,0,3.41-1.41V39.18h21a9,9,0,0,0,9-9v-4A2,2,0,0,0,40.17,24.18Z"/>
    <path class="a" d="M41.76,8.76,33.59.59A2,2,0,0,0,30.17,2V6.18h-21a9,9,0,0,0-9,9v4a2,2,0,0,0,2,2h4a2,2,0,0,0,2-2v-4a1,1,0,0,1,1-1h21v4.17a2,2,0,0,0,3.42,1.41l8.17-8.17A2,2,0,0,0,41.76,8.76Z"/>
  </g>
</svg>
