<?xml version="1.0" standalone="no"?>
<svg version="1.0" width="100px" height="100px" viewBox="8 8 110 110" preserveAspectRatio="xMidYMid meet">
<g transform="translate(0,128) scale(0.1,-0.1)"
fill="#d89e76" stroke="none">
<path d="M320 1040 l0 -80 -40 0 -40 0 0 -40 0 -40 40 0 40 0 0 -40 0 -40 -80
0 -80 0 0 -40 0 -40 80 0 80 0 0 -40 0 -40 -120 0 -120 0 0 -40 0 -40 120 0
120 0 0 -200 0 -200 400 0 400 0 0 364 0 364 -121 116 -121 116 -279 0 -279 0
0 -80z m480 -120 l0 -120 120 0 120 0 0 -280 0 -280 -320 0 -320 0 0 160 0
160 40 0 40 0 0 40 0 40 -40 0 -40 0 0 40 0 40 80 0 80 0 0 40 0 40 -80 0 -80
0 0 40 0 40 120 0 120 0 0 40 0 40 -120 0 -120 0 0 40 0 40 200 0 200 0 0
-120z m145 20 l59 -60 -62 0 -62 0 0 60 c0 33 1 60 3 60 1 0 29 -27 62 -60z"/>
</g>
</svg>
